<svg id="Layer_1" data-name="Layer 1" xmlns="http://www.w3.org/2000/svg" viewBox="0 0 214.1 136.1"><path d="M137.4,57.8c2.7-5.1,5.9-9.9,8-15.2a69.8,69.8,0,0,1,16.5-25.2c2.7-2.6,7.3-3.5,11.2-4.5,1.2-.3,3.6,1.7,4.4,3.2a210.9,210.9,0,0,1,18.8,49.2c2.7,10.6,6.9,20.7,10.3,31.1,1.2,3.6,1.6,7.4,2.7,11.1a56.6,56.6,0,0,0,3.6,9.7c2.2,4.5,1.5,7.4-3.2,9-13.7,4.8-27.6,8.9-42.3,4.5a7.3,7.3,0,0,0-2.5-.4q-33.2.1-66.3.6c-14.1.2-28.2.3-42.3,1.1s-30,2.6-45,3.9a33.8,33.8,0,0,1-4.5.1c-6-.3-7.6-2.5-6.4-8.3.7-3.6.8-7.2,1.5-10.8,1.1-6,1.9-12.1,3.6-17.9,3-10,6.7-19.9,10-29.9s5.7-18.8,9-28a80,80,0,0,1,6.3-12.8c1.8-3.2,5.1-2.9,7.4-.9,6.3,5.5,12.3,11.4,18.3,17.4,2.2,2.2,3.9,4.9,6,7.2s5,2.1,6.3-1.3,3-8.5,4.2-12.8c2.9-9.6,5.5-19.2,8.5-28.7C82.6,5.5,82.9.6,87.9.1s8.3,1.9,12,5.5c9.7,9.5,16.4,20.9,23.4,32.1,2.7,4.2,4.8,8.7,7.3,13,1.4,2.4,3.1,4.6,4.6,6.9Zm22.3,60.1.8-1.5-8-7.3c-2.8-2.6-6.2-4.8-8.2-7.9-8-12.4-15.5-25-23-37.7-2.4-3.9-3.6-8.6-6.1-12.5-5.3-8.4-11-16.5-16.8-24.6-1.8-2.6-4.4-4.8-7.4-7.9-1.2,3.3-2.1,5.3-2.8,7.5-1.9,6.5-3,13.3-5.7,19.5-5.6,12.6-6.1,26.6-12.1,39.1-2.5,5.2-2.3,11.8-3.7,17.7a28.9,28.9,0,0,1-2.6,6.3c-1.3,2.8-2.7,5.5-4.1,8.2,2.9.6,5.6,1.5,8.5,1.7,7.2.7,14.5,1.4,21.8,1.4,10.8-.1,21.5-1.1,32.3-1.3s22,.2,32.9.2A21,21,0,0,0,159.7,117.9Zm9.5-91.4h-1.8c-1.7,2.1-4,4.1-5.1,6.5-3.5,7.5-6.4,15.3-10.1,22.7-2.2,4.5-5.6,8.3-8.3,12.6-.7,1.2-1.1,3.4-.5,4.5a222.5,222.5,0,0,0,26.9,39.8,47.5,47.5,0,0,0,3.8,4c3,3.3,6.7,4,10.9,3.4l7.9-1.4c5.2-1,6.3-3,4.6-8-4.5-13.7-9-27.4-13.4-41.2-2.4-7.8-4.2-16-6.9-23.8S171.9,32.8,169.2,26.5ZM38.8,119.2v.6h3c3.3.1,6.4.5,7.7-4.1,2.9-11.1,6.5-22.1,9.5-33.2.9-3.6,3.6-7.4.5-11.3s-7.8-9.9-11.7-14.7-6.3-7.7-9.7-11.2c-.6-.6-3-.5-3.6.1a12.6,12.6,0,0,0-2.2,5,317.4,317.4,0,0,1-18.3,54.5c-.8,2-2,4-2.2,6-.7,8.4,1.9,12.1,9.7,10.6C27.3,120.5,33.1,120,38.8,119.2Z"/></svg>